<svg width="24" height="24" viewBox="0 0 24 24" fill="none" xmlns="http://www.w3.org/2000/svg">
<path d="M20.25 11.25H3.75C3.55109 11.25 3.36032 11.329 3.21967 11.4697C3.07902 11.6103 3 11.8011 3 12C3 12.199 3.07902 12.3897 3.21967 12.5304C3.36032 12.6711 3.55109 12.7501 3.75 12.7501H20.25C20.4489 12.7501 20.6397 12.6711 20.7803 12.5304C20.921 12.3897 21 12.199 21 12C21 11.8011 20.921 11.6103 20.7803 11.4697C20.6397 11.329 20.4489 11.25 20.25 11.25Z" fill="#F2F2F2"/>
<path d="M3.75 6.75H20.25C20.4489 6.75 20.6397 6.67098 20.7803 6.53033C20.921 6.38968 21 6.19891 21 6C21 5.80109 20.921 5.61032 20.7803 5.46967C20.6397 5.32902 20.4489 5.25 20.25 5.25H3.75C3.55109 5.25 3.36032 5.32902 3.21967 5.46967C3.07902 5.61032 3 5.80109 3 6C3 6.19891 3.07902 6.38968 3.21967 6.53033C3.36032 6.67098 3.55109 6.75 3.75 6.75Z" fill="#F2F2F2"/>
<path d="M20.25 17.2499H3.75C3.55109 17.2499 3.36032 17.329 3.21967 17.4696C3.07902 17.6103 3 17.801 3 17.9999C3 18.1989 3.07902 18.3896 3.21967 18.5303C3.36032 18.6709 3.55109 18.7499 3.75 18.7499H20.25C20.4489 18.7499 20.6397 18.6709 20.7803 18.5303C20.921 18.3896 21 18.1989 21 17.9999C21 17.801 20.921 17.6103 20.7803 17.4696C20.6397 17.329 20.4489 17.2499 20.25 17.2499Z" fill="#F2F2F2"/>
</svg>

