<svg width="16" height="16" viewBox="0 0 16 16" fill="none" xmlns="http://www.w3.org/2000/svg">
<path d="M13.4869 7.38503C13.4681 7.305 13.4299 7.23084 13.3756 7.16911C13.3213 7.10738 13.2526 7.05999 13.1757 7.03112L9.57374 5.6804L10.4904 1.09732C10.5117 0.990642 10.4977 0.879922 10.4504 0.781949C10.4031 0.683977 10.3251 0.604098 10.2284 0.554428C10.1316 0.504759 10.0212 0.488009 9.91407 0.506719C9.8069 0.525429 9.70876 0.578578 9.63453 0.658105L2.63448 8.15814C2.57839 8.21823 2.53798 8.29123 2.51683 8.37067C2.49568 8.4501 2.49445 8.53353 2.51323 8.61356C2.53202 8.69359 2.57024 8.76775 2.62453 8.82948C2.67881 8.89121 2.74748 8.9386 2.82445 8.96747L6.42638 10.3182L5.50974 14.9013C5.4884 15.0079 5.50244 15.1187 5.54972 15.2167C5.597 15.3146 5.67495 15.3945 5.77174 15.4442C5.86853 15.4939 5.97888 15.5106 6.08605 15.4919C6.19322 15.4732 6.29136 15.42 6.36559 15.3405L13.3656 7.84045C13.4217 7.78035 13.4621 7.70735 13.4833 7.62792C13.5044 7.54848 13.5057 7.46506 13.4869 7.38503Z" fill="white"/>
</svg>
