<svg width="16" height="16" viewBox="0 0 16 16" fill="none" xmlns="http://www.w3.org/2000/svg">
<path d="M10.3613 14.0001L12.9999 14C13.2651 13.9997 13.5192 13.8943 13.7067 13.7068C13.8942 13.5193 13.9996 13.2651 13.9999 13L14 10.6468C14 10.5646 13.9797 10.4836 13.941 10.4111C13.9022 10.3386 13.8462 10.2768 13.7778 10.2311C13.7095 10.1854 13.6309 10.1573 13.5491 10.1492C13.4673 10.1411 13.3847 10.1534 13.3087 10.1848C13.1316 10.2582 12.9417 10.2958 12.75 10.2955C11.9229 10.2955 11.25 9.60217 11.25 8.75C11.25 7.89783 11.9229 7.20453 12.75 7.20453C12.9417 7.2042 13.1316 7.2418 13.3087 7.31519C13.3847 7.34663 13.4673 7.35886 13.5491 7.35079C13.6309 7.34272 13.7095 7.3146 13.7778 7.26891C13.8462 7.22323 13.9022 7.1614 13.941 7.08888C13.9797 7.01637 14 6.93543 14 6.85321L13.9999 4.5C13.9996 4.23487 13.8942 3.98069 13.7067 3.79321C13.5192 3.60574 13.265 3.50029 12.9999 3.5L10.7363 3.50006C10.7454 3.41702 10.75 3.33354 10.75 3.25C10.75 2.65326 10.5129 2.08097 10.0909 1.65901C9.66899 1.23705 9.0967 1 8.49996 1C7.90323 1 7.33094 1.23705 6.90898 1.65901C6.48703 2.08097 6.24997 2.65326 6.24997 3.25C6.24994 3.33354 6.25449 3.41702 6.26359 3.50006L3.99998 3.5C3.73486 3.5003 3.48068 3.60575 3.29321 3.79322C3.10574 3.98069 3.00029 4.23488 2.99999 4.5L3.00002 6.51361C2.91699 6.5045 2.83352 6.49995 2.74999 6.5C2.15326 6.5 1.58096 6.73705 1.15901 7.15901C0.737052 7.58097 0.5 8.15326 0.5 8.75C0.5 9.34674 0.737052 9.91903 1.15901 10.341C1.58096 10.7629 2.15326 11 2.74999 11C2.83352 11 2.91699 10.9955 3.00002 10.9864L2.99999 13C3.00028 13.2651 3.10573 13.5193 3.2932 13.7068C3.48066 13.8942 3.73483 13.9997 3.99995 14L6.63873 14.0001" fill="white"/>
</svg>
