<svg width="16" height="16" viewBox="0 0 16 16" fill="none" xmlns="http://www.w3.org/2000/svg">
<path d="M14.75 8.70703L8.70707 14.7499C8.51939 14.9372 8.26509 15.0424 7.99997 15.0424C7.73485 15.0424 7.48055 14.9372 7.29287 14.7499L1.24994 8.70703C1.06268 8.51935 0.95752 8.26506 0.95752 7.99994C0.95752 7.73482 1.06268 7.48053 1.24994 7.29285L7.29287 1.24994C7.48056 1.06268 7.73485 0.95752 7.99997 0.95752C8.26509 0.95752 8.51939 1.06268 8.70707 1.24994L14.75 7.29285C14.9373 7.48053 15.0424 7.73482 15.0424 7.99994C15.0424 8.26506 14.9373 8.51935 14.75 8.70703Z" fill="white"/>
</svg>
