
<svg width="216" height="251" viewBox="0 0 216 251" fill="none" xmlns="http://www.w3.org/2000/svg">
<g filter="url(#filter0_f_313_6429)">
<path d="M249.713 55.8007L251 55.5582V25.4544C242.424 4.41172 227.532 -13.7465 208.322 -26.8272L191.608 5.38697L191.469 6.08358L160.27 4.35496L155.637 15.8309L155.817 15.6813L158.329 34.6806L153.13 22.0281L144.282 43.9068L156.991 -1.99707L157.011 -1.98674L157.032 -2.14155L183.001 -4.18493L193.59 -35.4187C176.268 -44.036 156.522 -49 135.5 -49C82.7122 -49 37.7538 -18.1635 20 25.1913V55.5582L21.2714 55.7955L36.297 70.8474C37.9803 77.0704 38.3509 84.6609 36.8581 92.6848L34.8197 103.64C33.4144 111.204 30.5884 117.778 27.0778 122.861L70.0184 165.896L96.7237 148.898L85.0389 167.454L89.9908 185.917L97.2797 193.223L99.035 176.592L101.197 197.15L109.001 204.962L110.746 188.326L112.913 208.889L120.716 216.702L122.466 200.071L124.628 220.623L134.949 230.969C135.135 230.969 135.325 231 135.505 231C135.696 231 135.881 230.969 136.061 230.969L146.382 220.623L148.534 200.071L150.284 216.712L158.098 208.889L160.249 188.326L162.01 204.968L169.813 197.15L171.965 176.592L173.715 193.228L181.004 185.927L185.961 167.454L174.271 148.898L200.982 165.906L243.932 122.85C240.412 117.783 237.601 111.204 236.191 103.64L234.157 92.6848C232.649 84.6506 233.03 77.0653 234.718 70.8423L249.713 55.8007ZM79.984 120.343C76.597 119.961 73.632 119.352 70.8369 118.64L40.9349 112.494L54.3854 108.495C51.6881 104.316 50.6586 99.0316 51.3896 92.4319C51.9764 87.1996 54.1383 82.4627 57.4379 78.4637L117.437 107.85L131.047 101.281L123.697 110.915L123.722 110.936C123.542 111.251 123.254 111.473 123.043 111.772L121.746 113.464C121.72 113.454 121.699 113.454 121.679 113.454C113.638 122.226 95.1229 122.061 79.984 120.343ZM137.976 166.401L135.495 143.878L133.019 166.401C125.91 165.38 120.474 160.06 120.474 153.62C120.474 146.437 135.495 119.357 135.495 119.357C135.495 119.357 150.531 146.437 150.531 153.62C150.531 160.06 145.09 165.374 137.976 166.401ZM200.158 118.635C197.373 119.347 194.388 119.956 191.011 120.338C175.882 122.056 157.361 122.221 149.316 113.444C149.295 113.444 149.264 113.444 149.234 113.454L147.947 111.761C147.746 111.457 147.453 111.235 147.262 110.926L147.293 110.905L139.937 101.271L153.557 107.84L213.536 78.4533C216.846 82.4524 219.013 87.1893 219.59 92.4216C220.336 99.0213 219.296 104.31 216.594 108.485L230.055 112.484L200.158 118.635Z" fill="black" fill-opacity="0.3"/>
</g>
<defs>
<filter id="filter0_f_313_6429" x="0" y="-69" width="271" height="320" filterUnits="userSpaceOnUse" color-interpolation-filters="sRGB">
<feFlood flood-opacity="0" result="BackgroundImageFix"/>
<feBlend mode="normal" in="SourceGraphic" in2="BackgroundImageFix" result="shape"/>
<feGaussianBlur stdDeviation="10" result="effect1_foregroundBlur_313_6429"/>
</filter>
</defs>
</svg>
