
<svg width="324" height="410" viewBox="0 0 324 410" fill="none" xmlns="http://www.w3.org/2000/svg">
<path d="M164.701 280.341C120.584 299.117 14.1798 325.295 -58.5038 279.802C-131.187 234.31 -173.12 183.903 -185 164.386" stroke="black"/>
<path d="M165.833 246.979C118.106 242.401 12.1217 214.571 -30.0019 139.885C-72.1254 65.1979 -84.8856 0.883612 -86.0002 -21.9377" stroke="black"/>
<path d="M177.207 204.809C138.51 176.501 61.5956 98.4543 63.5154 12.7292C65.4351 -72.9959 87.305 -134.809 98 -155" stroke="black"/>
<path d="M190.317 189.431C182.97 142.052 183.771 32.4774 245.745 -26.7819C307.719 -86.0412 366.892 -114.285 388.732 -121" stroke="black"/>
<path d="M208 198.033C225.328 153.327 280.808 58.8336 364.109 38.5007C447.41 18.1677 512.777 23.294 535.048 28.3988" stroke="black"/>
<path d="M206 231.716C243.359 201.664 338.653 147.57 420.96 171.612C503.267 195.654 557.314 232.777 574.049 248.333" stroke="black"/>
<path d="M208 262.317C255.379 254.97 364.954 255.771 424.213 317.745C483.472 379.719 511.716 438.892 518.431 460.732" stroke="black"/>
</svg>
