<svg width="20" height="21" viewBox="0 0 20 21" fill="none" xmlns="http://www.w3.org/2000/svg">
<g opacity="0.4">
<path d="M18.4379 11.3842L10.8842 18.9378C10.6496 19.1719 10.3317 19.3033 10.0003 19.3033C9.66893 19.3033 9.35106 19.1719 9.11646 18.9378L1.56279 11.3842C1.32872 11.1496 1.19727 10.8317 1.19727 10.5003C1.19727 10.1689 1.32872 9.85102 1.56279 9.61642L9.11646 2.06279C9.35106 1.82872 9.66893 1.69727 10.0003 1.69727C10.3317 1.69727 10.6496 1.82872 10.8842 2.06279L18.4379 9.61643C18.6719 9.85103 18.8034 10.1689 18.8034 10.5003C18.8034 10.8317 18.6719 11.1496 18.4379 11.3842Z" fill="white"/>
</g>
</svg>
